<?xml version="1.0" encoding="UTF-8"?>
<svg width="1440px" height="1024px" viewBox="0 0 1440 1024" version="1.1" xmlns="http://www.w3.org/2000/svg" xmlns:xlink="http://www.w3.org/1999/xlink">
    <title>Mask</title>
    <g id="Events-iterations" stroke="none" stroke-width="1" fill="none" fill-rule="evenodd">
        <g id="Desktop-HD-Events-Hover" fill="#000000">
            <path d="M945,499.649158 L707.975476,834 L471,499.649158 L471,484.72349 L707.975476,175 L945,484.72349 L945,499.649158 Z M1196.01561,499.132912 L1196.01561,484.186321 L1445.86119,156.696972 L1445.86119,7.86708783 L1432.6734,-7 L1340.72621,-7 L1314.32614,7.86708783 L1077.63161,335.356437 L1064.4928,335.356437 L827.822771,7.86708783 L801.532904,-7 L617.491586,-7 L591.128249,7.86708783 L354.409237,335.356437 L341.294916,335.356437 L104.637129,7.86708783 L78.3105262,-7 L-13.6611528,-7 L-26.8856786,7.86708783 L-26.8856786,156.696972 L222.947655,484.186321 L222.947655,499.132912 L-40,871.207624 L-40,1020.06931 L-26.8856786,1035 L65.15947,1035 L91.5228071,1020.06931 L341.294916,647.978697 L354.409237,647.978697 L604.242571,1020.06931 L630.593663,1035 L788.394092,1035 L814.757429,1020.06931 L1064.4928,647.978697 L1077.63161,647.978697 L1327.47719,1020.06931 L1353.79155,1035 L1445.86119,1035 L1459,1020.06931 L1459,871.207624 L1196.01561,499.132912 L1196.01561,499.132912 Z" id="Mask"></path>
        </g>
    </g>
</svg>