<svg id="Layer_1" data-name="Layer 1" xmlns="http://www.w3.org/2000/svg" viewBox="0 0 512 471.019"><defs><style>.cls-1{fill:#40e0d0;}</style></defs><path class="cls-1" d="M158.519,176.127A97.556,97.556,0,0,0,289.39,265.888a7.5,7.5,0,0,0-5.136-14.092,81.91,81.91,0,0,1-29.183,4.958c-44.144-.483-80.729-36.778-81.557-80.968a82.5,82.5,0,1,1,160.428,25.575,15.6,15.6,0,0,1-14.768,10.4h0A15.7,15.7,0,0,1,303.5,196.083V134.264a7.5,7.5,0,0,0-15,0v5.406a47.5,47.5,0,1,0,1.971,67.22,30.721,30.721,0,0,0,28.7,19.871h0a30.607,30.607,0,0,0,28.935-20.474,97.329,97.329,0,0,0,5.353-34.552c-1.29-50.893-42.113-92.562-92.873-94.862a97.688,97.688,0,0,0-102.07,99.254ZM256,206.761a32.5,32.5,0,1,1,32.5-32.5A32.535,32.535,0,0,1,256,206.761Z" transform="translate(0 -20.49)"/><path class="cls-1" d="M509.1,199.111,298.826,34.811a67.461,67.461,0,0,0-82.805-.242L2.936,199.071A7.567,7.567,0,0,0,0,205.021v66c0,1.516.1,32.962.248,37.642C1.5,317,4.567,299.9,7.194,299.9s6.271,14.089,7.7,5.737c.817-4.779.107-33.115.107-34.623V217.8L203.594,323.15,15,468.745V306.017a7.5,7.5,0,1,0-15,0V484.009a7.561,7.561,0,0,0,7.5,7.5H504.479a7.58,7.58,0,0,0,7.5-7.5v-278.1a7.834,7.834,0,0,0-2.882-6.8ZM29.488,476.51l195.7-151.081a52.469,52.469,0,0,1,64.4.189l3.611,2.822,94.026,73.469c1.335,1.042,26.986,21.639,33.3,25.469,9.141,5.541-.256-5.582,1.252-7.513,1.434-1.835,12.958,2.218,5.844-5.217-5.542-5.792-29.735-23.442-31.164-24.559L311.239,323.5l46.111-25.978a7.5,7.5,0,0,0-7.363-13.068L298.427,313.5a67.442,67.442,0,0,0-81.907-.31L21.078,204.013,225.188,46.44a52.47,52.47,0,0,1,64.4.189L491.745,204.586,379.61,267.76c-1.974,1.112-24.106,11.869-29.478,16.764-4.449,4.054,7.431,2.28,8.352,3.915.9,1.6-7.881,11.322-2.349,9.658,7.073-2.128,28.849-16.139,30.837-17.268l110.009-61.976V468.63l-73.726-57.608a7.5,7.5,0,1,0-9.236,11.82L482.7,476.509H29.488Z" transform="translate(0 -20.49)"/></svg>