<svg id="Capa_1" data-name="Capa 1" xmlns="http://www.w3.org/2000/svg" viewBox="0 0 430.231 377.079"><defs><style>.cls-1{fill:#40e0d0;}</style></defs><path class="cls-1" d="M217.875,159.668a43.886,43.886,0,1,0,43.886,43.886A43.886,43.886,0,0,0,217.875,159.668Zm0,66.873a22.988,22.988,0,0,1,0-45.976h0a22.988,22.988,0,0,1,0,45.976Z" transform="translate(0 -26.576)"/><path class="cls-1" d="M392.9,59.357,107.639,26.966a39.179,39.179,0,0,0-30.824,8.882A39.7,39.7,0,0,0,61.664,63.015L56.44,105.856h-16.2c-22.988,0-40.229,20.375-40.229,43.363V362.9a39.706,39.706,0,0,0,38.644,40.741q.792.021,1.585.01H327.067c22.988,0,43.886-17.763,43.886-40.751v-8.359a52.242,52.242,0,0,0,19.853-8.359,43.366,43.366,0,0,0,15.151-28.212L429.99,105.856A42.319,42.319,0,0,0,392.9,59.357ZM350.055,362.9c0,11.494-11.494,19.853-22.988,19.853H40.243a18.808,18.808,0,0,1-19.352-18.248q-.024-.8.021-1.605V324.239l80.98-59.559a25.078,25.078,0,0,1,32.392,1.567L191.231,316.4A49.114,49.114,0,0,0,222.056,327.9a47.542,47.542,0,0,0,25.078-6.792l102.922-59.559V362.9Zm0-125.91L236.161,303.341a26.645,26.645,0,0,1-30.825-2.612l-57.469-50.678a46.5,46.5,0,0,0-57.992-2.09L20.912,298.116v-148.9c0-11.494,7.837-22.465,19.331-22.465H327.067a24.033,24.033,0,0,1,22.988,22.465V236.99Zm59.057-133.955c-.007.069-.013.139-.021.208L384.536,315.357a17.762,17.762,0,0,1-6.792,14.106c-2.09,2.09-6.792,3.135-6.792,4.18V149.219a44.93,44.93,0,0,0-43.886-43.363H77.337l4.7-40.751a24.034,24.034,0,0,1,7.837-13.584,24.032,24.032,0,0,1,15.674-4.18L390.285,80.255A20.9,20.9,0,0,1,409.112,103.035Z" transform="translate(0 -26.576)"/></svg>