<svg xmlns="http://www.w3.org/2000/svg" viewBox="0 0 29.192 25.657"><defs><style>.cls-1{fill:aqua;}</style></defs><g id="Layer_2" data-name="Layer 2"><g id="Layer_1-2" data-name="Layer 1"><path class="cls-1" d="M17.161,5.987a.855.855,0,1,1-.855-.856.855.855,0,0,1,.855.856Z"/><path class="cls-1" d="M20.582,5.987a.855.855,0,1,1-.855-.856.855.855,0,0,1,.855.856Z"/><path class="cls-1" d="M24,5.987a.855.855,0,1,1-.855-.856A.855.855,0,0,1,24,5.987Z"/><path class="cls-1" d="M19.226,25.657a2.563,2.563,0,0,0,2.554-2.566V19.67a.856.856,0,0,0-.584-.811l-5.12-1.711a.855.855,0,0,0-.745.1L13.154,18.7a15.114,15.114,0,0,1-6.2-6.14l1.45-2.176a.854.854,0,0,0,.1-.746L6.8,4.518a.856.856,0,0,0-.811-.584H2.566A2.562,2.562,0,0,0,0,6.488,19.14,19.14,0,0,0,5.9,19.793a19.258,19.258,0,0,0,13.331,5.864ZM2.566,5.644H5.371L6.753,9.783,5.275,12a.854.854,0,0,0-.082.792,14.137,14.137,0,0,0,3.2,4.5,14.505,14.505,0,0,0,4.525,3.17.855.855,0,0,0,.792-.082L15.931,18.9l4.138,1.383v2.805a.84.84,0,0,1-.843.855c-9,0-17.516-8.484-17.516-17.458a.841.841,0,0,1,.856-.844Z"/><path class="cls-1" d="M15.979,15.329a.857.857,0,0,0,.932-.185l3.17-3.171h3.067a6.023,6.023,0,0,0,6.044-5.986A6.023,6.023,0,0,0,23.148,0H16.306a5.987,5.987,0,0,0-.855,11.912v2.627a.855.855,0,0,0,.528.79ZM12.03,5.987A4.281,4.281,0,0,1,16.306,1.71h6.842a4.311,4.311,0,0,1,4.333,4.277,4.31,4.31,0,0,1-4.333,4.276H19.727a.854.854,0,0,0-.6.25l-1.962,1.961V11.118a.854.854,0,0,0-.855-.855A4.281,4.281,0,0,1,12.03,5.987Z"/></g></g></svg>