<svg id="Layer_1" data-name="Layer 1" xmlns="http://www.w3.org/2000/svg" viewBox="0 0 512 512"><defs><style>.cls-1{fill:#40e0d0;}</style></defs><path class="cls-1" d="M362,0H150C67.29,0,0,67.29,0,150V362c0,82.71,67.29,150,150,150H362c82.71,0,150-67.29,150-150V150C512,67.29,444.71,0,362,0ZM492,362A130.148,130.148,0,0,1,362,492H150A130.148,130.148,0,0,1,20,362V150A130.148,130.148,0,0,1,150,20H362A130.148,130.148,0,0,1,492,150Z"/><path class="cls-1" d="M362,44H150A106.12,106.12,0,0,0,44,150V362A106.12,106.12,0,0,0,150,468h61c2.074,0,37.049,1.148,44.1.051,11.724-1.825-3.139-6.695-3.139-10.144,0-2.9,13.472-8.341,3.381-10.143C246.235,446.137,213.62,448,211,448H150a86.1,86.1,0,0,1-86-86V150a86.1,86.1,0,0,1,86-86H362a86.1,86.1,0,0,1,86,86V362a86.1,86.1,0,0,1-86,86H301.667c-1.868,0-40.966-1.151-47.05-.236-11.9,1.788,6.763,6.73,6.763,10.385,0,3.147-17.014,7.627-6.28,9.419,8.1,1.352,44.191.432,46.567.432H362A106.12,106.12,0,0,0,468,362V150A106.12,106.12,0,0,0,362,44Z"/><path class="cls-1" d="M263.07,450.93A9.995,9.995,0,1,0,266,458,10.076,10.076,0,0,0,263.07,450.93Z"/><path class="cls-1" d="M175.83,155.71a10,10,0,0,0-14.135-.461l-.443.417a10,10,0,1,0,13.726,14.546l.391-.367A10,10,0,0,0,175.83,155.71Z"/><path class="cls-1" d="M256,118a138.4,138.4,0,0,0-63.217,15.3c-1.724.89-27.6,18.747-30.9,21.837-6.091,5.7,10.124-1.959,11.767,1.224,1.752,3.392-5.906,15.729,2.038,12.954,3.548-1.239,24.754-17.461,26.269-18.243A116.682,116.682,0,0,1,256,138a117.938,117.938,0,1,1-102.687,59.822c1.093-1.925,19.522-23,22-28.319,3.706-7.942-8.754-.674-11.631-2.308-2.143-1.216,3-15.482-2.361-11.311-6.655,5.178-23.891,29.4-25.4,32.062A138.042,138.042,0,0,0,118,256c0,76.093,61.907,138,138,138s138-61.907,138-138S332.093,118,256,118Z"/><path class="cls-1" d="M256,166a90,90,0,1,0,90,90A90.1,90.1,0,0,0,256,166Zm0,160a70,70,0,1,1,70-70A70.079,70.079,0,0,1,256,326Z"/><path class="cls-1" d="M387.25,86.75a38,38,0,1,0,38,38A38.043,38.043,0,0,0,387.25,86.75Zm0,56a18,18,0,1,1,18-18A18.021,18.021,0,0,1,387.25,142.75Z"/></svg>