<svg id="Layer_1" data-name="Layer 1" xmlns="http://www.w3.org/2000/svg" viewBox="0 0 512.141 512"><defs><style>.cls-1{fill:#40e0d0;}</style></defs><path class="cls-1" d="M512,42.221A42.27,42.27,0,0,0,469.779,0H42.221A42.27,42.27,0,0,0,0,42.221V469.778A42.27,42.27,0,0,0,42.221,512H469.778A42.27,42.27,0,0,0,512,469.779s.115-364.933-.146-369.528c-4.287-7.307-14.549-5.087-15.555-4.119-1.517,1.459-.333,373.647-.333,373.647a26.217,26.217,0,0,1-26.188,26.188H42.221a26.218,26.218,0,0,1-26.188-26.188V42.221A26.218,26.218,0,0,1,42.221,16.033H469.778a26.217,26.217,0,0,1,26.188,26.188s-.488,57.677.577,59.038c1.136,1.452,11.364,6.308,15.207.611C512.447,99.643,512,42.221,512,42.221Z"/><path class="cls-1" d="M161.278,249.474c0-3.28.125-17.658.125-18.593V196.142a8.017,8.017,0,0,0-8.017-8.017H84.977a8.017,8.017,0,0,0-8.017,8.017V427.023a8.017,8.017,0,0,0,8.017,8.017h68.409a8.017,8.017,0,0,0,8.017-8.017s.281-176.59-.125-177.549c-.772-3.858-14.016-1.057-15.455.319-1.527,1.459-.454,169.213-.454,169.213H92.994V204.159H145.37v26.722c0,1.107-.105,16.857.474,20.33C147.146,252.125,160.179,252.59,161.278,249.474Z"/><path class="cls-1" d="M408.05,210.086c-16.319-13.956-37.454-21.96-57.987-21.96-33.891,0-55.359,11.268-68.944,25.151V196.143a8.017,8.017,0,0,0-8.017-8.017H204.693a8.017,8.017,0,0,0-8.017,8.017V427.024a8.017,8.017,0,0,0,8.017,8.017H273.1a8.017,8.017,0,0,0,8.017-8.017V315.858c0-21.457,18.032-34.739,34.739-34.739,20.129,0,34.739,14.61,34.739,34.739V427.023a8.017,8.017,0,0,0,8.017,8.017h68.409a8.017,8.017,0,0,0,8.017-8.017V264.551C435.04,244.315,425.454,224.972,408.05,210.086Zm10.956,208.92H366.63V315.858c0-28.946-21.828-50.772-50.772-50.772-24.418,0-50.772,19.412-50.772,50.772V419.006H212.71V204.159h52.376V238.9a8.017,8.017,0,0,0,15.275,3.4c11.871-25.31,35.323-38.143,69.7-38.143,32.545,0,68.944,25.828,68.944,60.392V419.006Z"/><path class="cls-1" d="M119.182,76.96A42.221,42.221,0,1,0,161.4,119.181,42.269,42.269,0,0,0,119.182,76.96Zm0,68.41a26.188,26.188,0,1,1,26.188-26.188A26.218,26.218,0,0,1,119.182,145.37Z"/></svg>