<svg id="Capa_1" data-name="Capa 1" xmlns="http://www.w3.org/2000/svg" viewBox="0 0 512 512"><defs><style>.cls-1{fill:#40e0d0;}</style></defs><path class="cls-1" d="M256,93.3a68.177,68.177,0,0,0-39.025,12.2c-2.459.221-20.823,20.681-22.3,26.278-1.857,7.045,6.973-3.8,8.322-1.827,1.171,1.714.8,13,4.263,8.322,2.938-3.973,14.927-19.843,18.191-20.359A53.36,53.36,0,0,1,256,108.366c29.754,0,53.96,24.388,53.96,54.365S285.754,217.1,256,217.1s-53.96-24.389-53.96-54.366a54.073,54.073,0,0,1,6.057-25.055,7.561,7.561,0,0,0-3.182-10.161,7.451,7.451,0,0,0-10.085,3.206,70.05,70.05,0,0,0-7.746,32.01c0,38.287,30.916,69.435,68.916,69.435s68.915-31.148,68.915-69.435S294,93.3,256,93.3Z" transform="translate(-0.001)"/><path class="cls-1" d="M511.426,501.571l-73.8-178.665a7.476,7.476,0,0,0-6.9-4.639H357.172a381.359,381.359,0,0,0,35.511-57.988c16.48-33.794,24.835-66.613,24.835-97.547C417.517,73,345.061,0,256,0S94.483,73,94.483,162.731c0,30.934,8.355,63.754,24.835,97.547a381.15,381.15,0,0,0,35.511,57.988H81.282a7.476,7.476,0,0,0-6.9,4.639L24.087,444.651c-.65,1.573-10.048,21.706-11.819,28.924-2.555,10.415,2.67,8.711,4.923,9.655.94.394,2.639-.19,3.6-.19,1.492,0,1.29,4.347,5.111-3.6,3.682-7.654,11.408-27.581,11.994-29l7.176-17.372H95.975L69.6,496.931H18.69l7.647-18.513a7.553,7.553,0,0,0-4.03-9.85,7.455,7.455,0,0,0-9.777,4.06L.575,501.571a7.577,7.577,0,0,0,.683,7.075A7.46,7.46,0,0,0,7.478,512H504.522a7.465,7.465,0,0,0,6.221-3.354A7.58,7.58,0,0,0,511.426,501.571ZM109.439,162.731c0-81.422,65.747-147.663,146.561-147.663S402.561,81.31,402.561,162.731c0,34.143-11.775,88.7-66.245,158.231-.055.065-.1.134-.156.2q-4.173,5.32-8.681,10.757A575.329,575.329,0,0,1,256,403.671a574.441,574.441,0,0,1-71.283-71.518q-4.626-5.567-8.889-11.01c-.046-.058-.089-.118-.137-.175C121.222,251.445,109.439,196.887,109.439,162.731Zm-23.17,170.6h50.907l-18.568,44.948H67.7ZM130,496.932l46.741-113.148L309.752,496.932Zm202.938,0h0l-154.352-131.3a7.451,7.451,0,0,0-11.727,2.861L113.8,496.931h-28l28.3-68.5a7.578,7.578,0,0,0-.683-7.075A7.462,7.462,0,0,0,107.187,418H51.3l10.182-24.65H123.6a7.476,7.476,0,0,0,6.9-4.639l22.876-55.377h12.978q3.379,4.245,6.894,8.491c38.585,46.43,76.578,76.239,78.177,77.486a7.435,7.435,0,0,0,9.152,0c.879-.685,12.757-10.009,29.673-25.96H374.93c1.76,0,29.1.9,36.3-.123,9.708-1.381-.37-5.026-.37-7.415,0-2.688,5.876-6.082-4.635-7.414-5.756-.73-29.836-.116-31.3-.116H305.661c10.368-10.5,21.7-22.749,33.093-36.457q3.526-4.245,6.894-8.491h80.083L444.3,378.283H404.841a7.534,7.534,0,0,0,0,15.068h45.681L460.7,418H306.634a7.481,7.481,0,0,0-7.006,4.9,7.573,7.573,0,0,0,2.1,8.326l75.133,65.707Zm66.746,0L326.657,433.07H466.93l26.381,63.862Z" transform="translate(-0.001)"/></svg>