<svg id="Capa_1" data-name="Capa 1" xmlns="http://www.w3.org/2000/svg" viewBox="0 0 295 512"><defs><style>.cls-1{fill:#40e0d0;}</style></defs><path class="cls-1" d="M366,0H146a37.542,37.542,0,0,0-37.5,37.5v437A37.542,37.542,0,0,0,146,512H366a37.542,37.542,0,0,0,37.5-37.5V37.5A37.542,37.542,0,0,0,366,0Zm22.5,407H176a7.5,7.5,0,0,0,0,15H388.5v52.5A22.525,22.525,0,0,1,366,497H146a22.525,22.525,0,0,1-22.5-22.5V422H146c1.516,0,28.667.57,34.7-.2,10.457-1.343,1.391-4.678,1.391-7.3,0-2.695,9.549-5.985-1.043-7.305-5.689-.708-33.6-.186-35.052-.186H123.5V75h265Zm0-347h-265V37.5A22.525,22.525,0,0,1,146,15H366a22.525,22.525,0,0,1,22.5,22.5Z" transform="translate(-108.5)"/><path class="cls-1" d="M286,30H256a7.5,7.5,0,0,0,0,15h30a7.5,7.5,0,0,0,0-15Z" transform="translate(-108.5)"/><path class="cls-1" d="M256,437a22.5,22.5,0,1,0,22.5,22.5A22.525,22.525,0,0,0,256,437Zm0,30a7.5,7.5,0,1,1,7.5-7.5A7.508,7.508,0,0,1,256,467Z" transform="translate(-108.5)"/><circle class="cls-1" cx="117.5" cy="37.5" r="7.5"/></svg>