<svg id="Layer_1" data-name="Layer 1" xmlns="http://www.w3.org/2000/svg" viewBox="0 0 512 475.847"><defs><style>.cls-1{fill:#40e0d0;}</style></defs><path class="cls-1" d="M476.452,18.257H292.331a7.5,7.5,0,0,0,0,15H476.452A20.573,20.573,0,0,1,497,53.805V246.926a20.573,20.573,0,0,1-20.549,20.549H447.043a7.491,7.491,0,0,0-4.4,1.426L391.506,305.94V274.975a7.5,7.5,0,0,0-7.5-7.5H221.225a20.571,20.571,0,0,1-20.549-20.549V53.805a20.573,20.573,0,0,1,20.549-20.549h38.428c1.745,0,31.176.779,38.491-.246,10.05-1.407-1.58-4.979-1.58-7.376,0-2.561,15.457-6.059,4.917-7.376-6.513-.814-40.246,0-41.828,0H221.225a35.587,35.587,0,0,0-35.548,35.548V246.926a35.589,35.589,0,0,0,35.548,35.549H376.507v38.158a7.5,7.5,0,0,0,11.9,6.074l61.068-44.231h26.978A35.588,35.588,0,0,0,512,246.927V53.805a35.589,35.589,0,0,0-35.548-35.548Z" transform="translate(0 -17.896)"/><path class="cls-1" d="M435.573,414.662A34.952,34.952,0,0,0,417.5,388.573L384.153,370.4a7.5,7.5,0,1,0-7.173,13.172l33.346,18.169a20.093,20.093,0,0,1,10.391,14.984c0,.041.01.082.016.122a20.1,20.1,0,0,1-6.052,17.346l-4.916,4.72-123.12-69.278,14.47-12.727a19.679,19.679,0,0,1,22.367-2.5l20.808,11.34c1.725.94,26.665,16.033,35.824,19.5,10.157,3.848,4.578-4.032,5.621-5.944.912-1.675,9.82-1.191,2.269-6.7-8.847-6.457-34.573-18.957-36.536-20.027l-20.8-11.337a34.729,34.729,0,0,0-39.455,4.4l-33.719,29.66a19.811,19.811,0,0,1-24.512,1.368c-50.789-35.581-87.672-74.725-112.757-119.664a19.767,19.767,0,0,1,2.939-23.284L149.85,205.5a34.759,34.759,0,0,0,5.806-39.283L110.74,76.383A35.29,35.29,0,0,0,55.223,66.236L38.164,82A117.791,117.791,0,0,0,2.076,147.139a116.407,116.407,0,0,0,10.018,73.635c.05.106.1.2.136.274,7.17,14.5,14.923,28.677,23.028,42.118,1.353,2.262,2.812,4.651,4.334,7.1,1.092,1.759,16.919,27.755,24.322,36.241s6.383-.536,8.143-1.628c1.583-.983,8.208.891,3.8-7.926-5.391-10.782-22.319-32.662-23.521-34.6-1.479-2.383-2.895-4.7-4.219-6.917-7.9-13.092-15.438-26.884-22.416-40.992-.039-.082-.079-.162-.12-.242C5.866,174.317,14.674,125.371,46.89,94.411l67.633,126.62-2.265,2.4a34.705,34.705,0,0,0-5.136,40.893c26.213,46.962,64.565,87.732,117.251,124.641a34.772,34.772,0,0,0,43.023-2.392l7.317-6.435,123.752,69.632-.125.12a103.215,103.215,0,0,1-118.9,17.354C194.425,423.3,125.317,365.212,74.03,294.6a7.5,7.5,0,1,0-12.136,8.815c52.673,72.524,123.548,132.128,210.654,177.156a118.175,118.175,0,0,0,136.18-19.861l16.343-15.694a34.953,34.953,0,0,0,10.557-29.926c-.014-.143-.033-.283-.055-.425ZM58.255,83.855l7.146-6.6a20.29,20.29,0,0,1,31.922,5.835l44.918,89.835a19.708,19.708,0,0,1-3.292,22.272l-13.56,14.342Z" transform="translate(0 -17.896)"/><path class="cls-1" d="M451.545,157.474a26.2,26.2,0,1,0-26.2,26.2A26.228,26.228,0,0,0,451.545,157.474Zm-37.4,0a11.2,11.2,0,1,1,11.2,11.2A11.21,11.21,0,0,1,414.149,157.474Z" transform="translate(0 -17.896)"/><path class="cls-1" d="M375.037,157.474a26.2,26.2,0,1,0-26.2,26.2A26.228,26.228,0,0,0,375.037,157.474Zm-37.4,0a11.2,11.2,0,1,1,11.2,11.2A11.211,11.211,0,0,1,337.641,157.474Z" transform="translate(0 -17.896)"/><path class="cls-1" d="M246.135,157.474a26.2,26.2,0,1,0,26.2-26.2A26.227,26.227,0,0,0,246.135,157.474Zm26.2-11.2a11.2,11.2,0,1,1-11.2,11.2A11.211,11.211,0,0,1,272.332,146.276Z" transform="translate(0 -17.896)"/></svg>