<?xml version="1.0"?>
<svg xmlns="http://www.w3.org/2000/svg" xmlns:xlink="http://www.w3.org/1999/xlink" xmlns:svgjs="http://svgjs.com/svgjs" version="1.1" width="512" height="512" x="0" y="0" viewBox="0 0 512.026 512.026" style="enable-background:new 0 0 512 512" xml:space="preserve" class=""><g><g xmlns="http://www.w3.org/2000/svg"><path d="m476.476 18.258h-184.13c-4.143 0-7.5 3.357-7.5 7.5s3.357 7.5 7.5 7.5h184.13c11.331 0 20.55 9.219 20.55 20.55v193.131c0 11.331-9.219 20.55-20.55 20.55h-29.41c-1.58 0-3.12.499-4.399 1.426l-51.141 37.041v-30.967c0-4.143-3.357-7.5-7.5-7.5h-162.79c-11.332 0-20.55-9.219-20.55-20.55v-193.131c0-11.331 9.219-20.55 20.55-20.55h38.43c4.143 0 7.5-3.357 7.5-7.5s-3.357-7.5-7.5-7.5h-38.43c-19.603 0-35.55 15.947-35.55 35.55v193.131c0 19.603 15.948 35.55 35.55 35.55h155.29v38.16c0 2.818 1.58 5.398 4.09 6.68 2.66 1.268 5.263 1.066 7.81-.605l61.071-44.234h26.979c19.603 0 35.55-15.947 35.55-35.55v-193.132c0-19.602-15.948-35.55-35.55-35.55z" fill="#40e0d0" data-original="#000000" style="" class=""/><path d="m435.595 414.683c-1.564-11.178-8.143-20.681-18.07-26.09l-33.352-18.171c-3.637-1.985-8.192-.641-10.174 2.999-1.98 3.637-.638 8.192 3 10.173l33.348 18.17c5.706 3.108 9.487 8.566 10.391 14.985.005.041.01.082.016.122.875 6.484-1.332 12.809-6.052 17.347l-4.916 4.72-123.126-69.281 14.47-12.728c6.173-5.431 15.159-6.434 22.368-2.496l20.81 11.341c3.637 1.981 8.192.641 10.175-2.997 1.981-3.637.641-8.192-2.997-10.175l-20.805-11.338c-12.714-6.942-28.573-5.175-39.457 4.401l-33.721 29.661c-6.907 6.075-16.988 6.639-24.513 1.368-50.792-35.583-87.677-74.729-112.763-119.67-4.23-7.588-3.048-16.946 2.939-23.285l26.692-28.231c9.953-10.538 12.286-26.325 5.806-39.285l-44.918-89.836c-5.004-10.021-14.194-16.924-25.213-18.94-11.026-2.02-22.071 1.187-30.307 8.792l-17.06 15.761c-18.858 17.42-31.338 39.948-36.09 65.146-4.761 25.24-1.296 50.701 10.019 73.639.05.106.097.198.136.274 7.17 14.5 14.923 28.679 23.029 42.12 1.353 2.262 2.812 4.652 4.334 7.105 2.185 3.518 6.808 4.6 10.328 2.416 3.519-2.185 4.601-6.809 2.417-10.328-1.479-2.383-2.895-4.703-4.22-6.917-7.896-13.093-15.438-26.885-22.417-40.994-.039-.082-.079-.162-.12-.242-19.716-39.893-10.907-88.842 21.31-119.803l67.637 126.626-2.265 2.396c-10.509 11.124-12.574 27.558-5.137 40.895 26.215 46.965 64.569 87.737 117.257 124.648 6.048 4.235 13.033 6.325 19.994 6.325 8.247 0 16.459-2.936 23.032-8.717l7.317-6.436 123.758 69.636-.125.12c-31.9 30.648-79.687 37.623-118.909 17.355-85.016-43.944-154.128-102.034-205.417-172.652-2.435-3.352-7.125-4.097-10.476-1.661-3.352 2.435-4.095 7.124-1.661 10.476 52.676 72.528 123.554 132.135 210.665 177.165 17.147 8.86 35.715 13.176 54.161 13.176 29.885 0 59.439-11.337 82.026-33.038l16.344-15.694c8.152-7.839 11.992-18.734 10.557-29.928-.014-.143-.033-.283-.055-.425zm-377.337-330.824 7.146-6.601c4.736-4.373 11.086-6.214 17.429-5.056 6.334 1.159 11.617 5.127 14.495 10.891l44.92 89.84c3.674 7.348 2.35 16.3-3.292 22.273l-13.561 14.343z" fill="#40e0d0" data-original="#000000" style="" class=""/><path d="m451.568 157.482c0-14.446-11.753-26.199-26.199-26.199-14.445 0-26.198 11.753-26.198 26.199 0 14.445 11.753 26.198 26.198 26.198 14.446 0 26.199-11.753 26.199-26.198zm-37.398 0c0-6.175 5.023-11.199 11.198-11.199s11.199 5.024 11.199 11.199-5.024 11.198-11.199 11.198-11.198-5.023-11.198-11.198z" fill="#40e0d0" data-original="#000000" style="" class=""/><path d="m375.056 157.482c0-14.446-11.753-26.199-26.198-26.199-14.446 0-26.199 11.753-26.199 26.199 0 14.445 11.753 26.198 26.199 26.198 14.445 0 26.198-11.753 26.198-26.198zm-37.398 0c0-6.175 5.024-11.199 11.199-11.199s11.198 5.024 11.198 11.199-5.023 11.198-11.198 11.198-11.199-5.023-11.199-11.198z" fill="#40e0d0" data-original="#000000" style="" class=""/><path d="m246.147 157.482c0 14.445 11.752 26.198 26.199 26.198s26.199-11.753 26.199-26.198c0-14.446-11.753-26.199-26.199-26.199s-26.199 11.753-26.199 26.199zm26.199-11.199c6.175 0 11.199 5.024 11.199 11.199s-5.024 11.198-11.199 11.198-11.198-5.023-11.198-11.198 5.023-11.199 11.198-11.199z" fill="#40e0d0" data-original="#000000" style="" class=""/></g></g></svg>
