<svg id="Layer_1" data-name="Layer 1" xmlns="http://www.w3.org/2000/svg" viewBox="0 0 450.563 512.182"><defs><style>.cls-1{fill:#40e0d0;fill-rule:evenodd;}</style></defs><path class="cls-1" d="M440.59,206.676H99.418l327.7-94.93a10,10,0,0,0,6.824-12.387h0l-17.148-59.2A55.981,55.981,0,0,0,363.254,0a55.419,55.419,0,0,0-15.4,2.191L40.176,91.32A55.783,55.783,0,0,0,2.207,160.258l16.754,57.836V456.348A55.714,55.714,0,0,0,74.609,512H194.773c2.685,0,29.793.281,40.124.145,9.878-1.833.951-7.356.951-10.195,0-3.62,11.264-8.182-.815-9.923-6.117.136-38.356-.027-40.26-.027H74.613a35.691,35.691,0,0,1-35.652-35.652V320.262H430.59V456.348A35.691,35.691,0,0,1,394.938,492H274.773c-2.148,0-32.264.163-40.556.163-11.787,1.718-1.223,6.142-1.223,9.516,0,2.839-9.113,8.563.951,10.466,9.515,0,38.147-.145,40.828-.145H394.938a55.716,55.716,0,0,0,55.652-55.652V216.676A10,10,0,0,0,440.59,206.676ZM264.258,300.262l42.488-73.586h55.262l-42.485,73.586Zm-78.36,0,42.489-73.586h55.261l-42.484,73.586Zm-78.355,0,42.484-73.586h55.266l-42.488,73.586Zm37.18-129.457L73.574,102.469l53.309-15.442A9.891,9.891,0,0,0,128.2,88.57l71.149,68.336L146.04,172.348a9.891,9.891,0,0,0-1.317-1.543Zm134-125.84L349.871,113.3l-53.309,15.441a9.665,9.665,0,0,0-1.312-1.543L224.1,58.863l53.31-15.441A9.92,9.92,0,0,0,278.723,44.965Zm-75.266,21.8L274.605,135.1,221.3,150.547A9.667,9.667,0,0,0,219.984,149L148.836,80.668l53.309-15.441a10.556,10.556,0,0,0,1.312,1.543ZM353.418,21.4a35.394,35.394,0,0,1,9.836-1.4,35.88,35.88,0,0,1,34.328,25.727l14.367,49.589-40.121,11.622a10.145,10.145,0,0,0-1.316-1.543L299.367,37.062ZM24.48,127.6a35.39,35.39,0,0,1,21.262-17.071l5.875-1.7a10.125,10.125,0,0,0,1.313,1.543l71.148,68.336L35.785,204.285,21.418,154.7A35.4,35.4,0,0,1,24.48,127.6Zm14.481,99.074h87.973L84.449,300.26H38.961ZM342.617,300.26,385.1,226.676h45.49v73.586Z" transform="translate(-0.027)"/><path class="cls-1" d="M303.922,405.113a10,10,0,0,0-5-8.66L211.066,345.73a10,10,0,0,0-15,8.661V455.836a9.994,9.994,0,0,0,15,8.656l87.856-50.719A10,10,0,0,0,303.922,405.113Zm-87.856,33.4v-66.8l57.856,33.4Z" transform="translate(-0.027)"/><path class="cls-1" d="M234.773,492a10,10,0,1,0,10,10A10,10,0,0,0,234.773,492Z" transform="translate(-0.027)"/></svg>